<svg xmlns="http://www.w3.org/2000/svg" width="151" height="40"><defs><clipPath id="a"><path transform="translate(72 35)" fill="none" d="M0 0h103v24H0z"/></clipPath><clipPath id="b"><path stroke="#707070" fill="#2a8356" d="M0 0h40v40H0z"/></clipPath></defs><g transform="translate(-24 -27)" clip-path="url(#a)"><path d="M83.6 51.28h-5.016L77.432 55h-3.288l5.424-16.8h3.288l5.4 16.8H84.8zm-4.248-2.64h3.6l-1.7-5.616h-.22zm15.888-3.576h-.12l.144 1.992V55h-3.12V38.2h2.88l5.808 10.272h.12l-.216-2.016V38.2h3.12V55h-2.88zm13.92 4.436h2.64v2.38l.144.048a7.177 7.177 0 001.212.4 6.089 6.089 0 001.4.156 3.5 3.5 0 002.088-.54 1.7 1.7 0 00.744-1.452 1.628 1.628 0 00-.612-1.32 6.18 6.18 0 00-1.512-.888q-.9-.384-1.968-.768a9.393 9.393 0 01-1.968-.972 5.42 5.42 0 01-1.508-1.48 3.979 3.979 0 01-.612-2.3 4.624 4.624 0 01.42-1.98 4.552 4.552 0 011.172-1.552 5.453 5.453 0 011.812-1.008 7.257 7.257 0 012.352-.36 15.68 15.68 0 012.88.264 7.793 7.793 0 012.256.72v4.872h-2.64v-2.664a.453.453 0 01-.144-.024 8.975 8.975 0 00-1.14-.228 8.9 8.9 0 00-1.212-.084 3.146 3.146 0 00-1.812.456 1.417 1.417 0 00-.652 1.224 1.6 1.6 0 00.612 1.3 6.758 6.758 0 001.512.912q.9.408 1.968.816a10.314 10.314 0 011.968 1 5.42 5.42 0 011.508 1.472 3.844 3.844 0 01.612 2.232 5.063 5.063 0 01-.48 2.268 4.579 4.579 0 01-1.344 1.628 5.9 5.9 0 01-2.04.984 9.549 9.549 0 01-2.544.324 9.329 9.329 0 01-1.692-.144 11.132 11.132 0 01-1.44-.36 9.841 9.841 0 01-1.164-.456q-.5-.24-.816-.408zm19.44-1.916l.048 2.016h.1l.408-1.9 1.44-4.464h2.444l1.344 4.464.432 1.9h.1l.048-2.064.672-9.336h3.024L136.928 55h-2.784l-1.8-5.3-.552-2.3h-.12l-.572 2.3-1.948 5.3h-2.88l-1.728-16.8h3.288zm14.28-9.384h11.02v2.928h-7.732v3.912h7.132v2.928h-7.132v4.1h7.848V55H142.88zm16.608.168q.552-.1 1.188-.18t1.272-.132q.636-.048 1.236-.072t1.1-.024a11.78 11.78 0 012.316.228 6.186 6.186 0 012.04.78 4.143 4.143 0 011.44 1.488 4.6 4.6 0 01.54 2.328 6.917 6.917 0 01-.2 1.788 4.913 4.913 0 01-.564 1.328 4.023 4.023 0 01-.876 1 7.8 7.8 0 01-1.116.756L171.92 55h-3.792l-3.384-6.576h-1.968V55h-3.288zm5.04 2.52q-.5 0-1 .024a3.734 3.734 0 00-.756.1v4.868h1.3a3.721 3.721 0 002.228-.624 2.373 2.373 0 00.864-2.064 2.173 2.173 0 00-.664-1.692 2.83 2.83 0 00-1.972-.612z" fill="#121212"/></g><g clip-path="url(#b)"><path d="M20 37.501l-5.785-5.784-6.589.66.658-6.592L2.5 20.001l5.783-5.784-.658-6.59 6.589.659L20 2.501l5.783 5.784 6.59-.659-.659 6.589 5.786 5.786-5.784 5.784.659 6.59-6.59-.66L20 37.501zm0-30l-12.5 12.5 12.5 12.5 12.5-12.5zm-3.1 15.6l-6.9-3.1 6.9-3.1 3.1-6.9 3.1 6.9 6.9 3.1-6.9 3.1-3.1 6.9z" fill="#2a8356"/></g></svg>